
<svg width="146px" height="37px" viewBox="0 0 146 37" version="1.1" xmlns="http://www.w3.org/2000/svg" xmlns:xlink="http://www.w3.org/1999/xlink">
    <!-- Generator: Sketch 44.1 (41455) - http://www.bohemiancoding.com/sketch -->
    <desc>Created with Sketch.</desc>
    <defs>
        <polygon id="path-1" points="0 36.9473684 145.936878 36.9473684 145.936878 0.407898947 0 0.407898947"></polygon>
    </defs>
    <g id="Page-1" stroke="none" stroke-width="1" fill="none" fill-rule="evenodd">
        <g id="Terry-Soot-Cookies" transform="translate(-263.000000, -63.000000)">
            <g id="Page-1" transform="translate(263.000000, 63.000000)">
                <polygon id="Fill-1" fill="#48484A" points="87.6876482 19.1809061 90.4447835 19.1809061 90.4447835 8.49819032 94.1844073 8.49819032 94.1844073 6.03453979 83.9282686 6.03453979 83.9282686 8.49819032 87.6876482 8.49819032"></polygon>
                <polygon id="Fill-2" fill="#48484A" points="105.806826 16.7172556 99.4454667 16.7172556 99.4454667 13.7407756 105.671909 13.7407756 105.671909 11.2776177 99.4454667 11.2776177 99.4454667 8.49819032 105.806826 8.49819032 105.806826 6.03453979 96.7076053 6.03453979 96.7076053 19.1809061 105.806826 19.1809061"></polygon>
                <g id="Group-22" transform="translate(0.000000, 0.084683)">
                    <path d="M114.325324,11.9614888 C115.423938,11.9614888 116.253199,11.2915099 116.253199,10.1875225 C116.253199,9.08402779 115.423938,8.41355621 114.325324,8.41355621 L111.453027,8.41355621 L111.453027,11.9614888 L114.325324,11.9614888 Z M119.0484,10.1875225 C119.0484,12.5132362 117.622129,13.7551604 116.233925,14.0901499 L119.125496,19.096272 L115.982882,19.096272 L113.457516,14.4251394 L111.453027,14.4251394 L111.453027,19.096272 L108.715166,19.096272 L108.715166,5.94990568 L114.730077,5.94990568 C117.409634,5.94990568 119.0484,7.74357726 119.0484,10.1875225 Z" id="Fill-3" fill="#48484A"></path>
                    <path d="M127.489995,11.9614888 L124.617216,11.9614888 L124.617216,8.41355621 L127.489995,8.41355621 C128.588609,8.41355621 129.417869,9.08402779 129.417869,10.1875225 C129.417869,11.2915099 128.588609,11.9614888 127.489995,11.9614888 M132.213071,10.1875225 C132.213071,7.74357726 130.574305,5.94990568 127.894747,5.94990568 L121.879836,5.94990568 L121.879836,19.096272 L124.617216,19.096272 L124.617216,14.4251394 L126.622186,14.4251394 L129.147552,19.096272 L132.290166,19.096272 L129.398595,14.0901499 C130.786318,13.7551604 132.213071,12.5132362 132.213071,10.1875225" id="Fill-5" fill="#48484A"></path>
                    <polygon id="Fill-7" fill="#48484A" points="142.813634 5.95005347 139.651747 11.2320493 136.451793 5.95005347 133.328453 5.95005347 138.283298 13.7154051 138.283298 19.0964198 141.020677 19.0964198 141.020677 13.7154051 145.936492 5.95005347"></polygon>
                    <path d="M88.8038013,26.4640206 C88.8038013,26.0305048 89.1642238,25.7373891 89.8113459,25.7373891 C90.5321908,25.7373891 91.2954383,25.9871533 91.8678739,26.529048 L92.7058079,25.4019069 C92.0061644,24.7403027 91.0728244,24.3934901 89.9491545,24.3934901 C88.284369,24.3934901 87.2667056,25.3905764 87.2667056,26.5940754 C87.2667056,29.3148796 91.3378409,28.4365175 91.3378409,29.7158817 C91.3378409,30.1277217 90.9350158,30.5178859 90.1081644,30.5178859 C89.1329036,30.5178859 88.3585736,30.0735322 87.8603426,29.5424754 L87.0440917,30.712968 C87.7013327,31.3957554 88.6765934,31.8622775 90.0339597,31.8622775 C91.9425604,31.8622775 92.8648178,30.8646985 92.8648178,29.5424754 C92.8648178,26.8433469 88.8038013,27.6128375 88.8038013,26.4640206" id="Fill-9" fill="#48484A"></path>
                    <path d="M97.6558825,30.4962594 C96.3520013,30.4962594 95.5145492,29.4666594 95.5145492,28.1222678 C95.5145492,26.7675309 96.3520013,25.7487688 97.6558825,25.7487688 C98.9597637,25.7487688 99.8082983,26.7675309 99.8082983,28.1222678 C99.8082983,29.4666594 98.9597637,30.4962594 97.6558825,30.4962594 M97.6558825,24.3827015 C95.524668,24.3827015 93.966371,25.9438509 93.966371,28.1222678 C93.966371,30.3011773 95.524668,31.8618341 97.6558825,31.8618341 C99.7972158,31.8618341 101.355995,30.3011773 101.355995,28.1222678 C101.355995,25.9438509 99.7972158,24.3827015 97.6558825,24.3827015" id="Fill-11" fill="#48484A"></path>
                    <path d="M106.189414,30.4962594 C104.885533,30.4962594 104.048081,29.4666594 104.048081,28.1222678 C104.048081,26.7675309 104.885533,25.7487688 106.189414,25.7487688 C107.493295,25.7487688 108.34183,26.7675309 108.34183,28.1222678 C108.34183,29.4666594 107.493295,30.4962594 106.189414,30.4962594 M106.189414,24.3827015 C104.058199,24.3827015 102.499902,25.9438509 102.499902,28.1222678 C102.499902,30.3011773 104.058199,31.8618341 106.189414,31.8618341 C108.330747,31.8618341 109.889526,30.3011773 109.889526,28.1222678 C109.889526,25.9438509 108.330747,24.3827015 106.189414,24.3827015" id="Fill-13" fill="#48484A"></path>
                    <polygon id="Fill-15" fill="#48484A" points="110.683226 25.8569015 112.750837 25.8569015 112.750837 31.7320257 114.266731 31.7320257 114.266731 25.8569015 116.323741 25.8569015 116.323741 24.5021646 110.683226 24.5021646"></polygon>
                    <mask id="mask-2" fill="white">
                        <use xlink:href="#path-1"></use>
                    </mask>
                    <g id="Clip-18"></g>
                    <path d="M3.21248185,33.6629937 L63.0893465,33.6629937 L63.0893465,3.69227368 L3.21248185,3.69227368 L3.21248185,33.6629937 Z M0,36.9473684 L66.3018284,36.9473684 L66.3018284,0.407898947 L0,0.407898947 L0,36.9473684 Z" id="Fill-17" fill="#48484A" mask="url(#mask-2)"></path>
                    <polygon id="Fill-19" fill="#48484A" mask="url(#mask-2)" points="51.1318983 11.4217124 48.2538191 11.4217124 48.2538191 14.7060872 51.1318983 14.7060872 51.1318983 27.8770851 54.2990865 27.8770851 54.2990865 9.22112716 51.1318983 9.22112716"></polygon>
                    <path d="M17.6688911,24.6611861 C14.568198,24.6611861 12.0471683,22.0837377 12.0471683,18.9141461 C12.0471683,15.7445545 14.568198,13.1666135 17.6688911,13.1666135 C20.7695842,13.1666135 23.2906139,15.7445545 23.2906139,18.9141461 C23.2906139,22.0837377 20.7695842,24.6611861 17.6688911,24.6611861 M17.6688911,9.88223874 C12.7983696,9.88223874 8.83468647,13.9341335 8.83468647,18.9141461 C8.83468647,23.8936661 12.7983696,27.9455608 17.6688911,27.9455608 C22.5398944,27.9455608 26.5030957,23.8936661 26.5030957,18.9141461 C26.5030957,13.9341335 22.5398944,9.88223874 17.6688911,9.88223874" id="Fill-20" fill="#48484A" mask="url(#mask-2)"></path>
                    <polygon id="Fill-21" fill="#48484A" mask="url(#mask-2)" points="31.3554515 29.3375406 33.3498211 29.3375406 42.1334317 7.76027747 39.9940257 7.76027747"></polygon>
                </g>
            </g>
        </g>
    </g>
</svg>
