<?xml version="1.0" standalone="no"?>
<!DOCTYPE svg PUBLIC "-//W3C//DTD SVG 20010904//EN"
 "http://www.w3.org/TR/2001/REC-SVG-20010904/DTD/svg10.dtd">
<svg version="1.0" xmlns="http://www.w3.org/2000/svg"
 width="250.000000pt" height="250.000000pt" viewBox="0 0 250.000000 250.000000"
 preserveAspectRatio="xMidYMid meet">
<metadata>
Created by potrace 1.11, written by Peter Selinger 2001-2013
</metadata>
<g transform="translate(0.000000,250.000000) scale(0.100000,-0.100000)"
fill="#000000" stroke="none">
<path d="M0 1245 l0 -845 1250 0 1250 0 0 845 0 845 -1250 0 -1250 0 0 -845z
m203 700 c-6 -17 17 -17 29 0 5 6 8 6 8 -1 0 -7 7 -14 15 -18 13 -4 14 -2 5
14 -9 16 -8 18 5 14 8 -4 15 -11 15 -18 0 -6 5 -4 10 4 7 11 10 11 10 2 0 -10
5 -10 20 -2 11 6 20 8 20 4 0 -3 7 0 17 7 15 13 15 12 3 -11 -12 -23 -12 -24
3 -11 10 7 17 10 17 5 0 -5 5 -2 10 6 5 8 10 10 10 4 0 -7 7 -14 15 -18 13 -4
14 -2 5 14 -9 16 -8 18 5 14 8 -4 15 -11 15 -18 0 -6 5 -4 10 4 7 11 10 11 10
2 0 -10 5 -10 20 -2 11 6 20 8 20 4 0 -3 7 0 17 7 15 13 15 12 3 -11 -12 -23
-12 -24 3 -11 10 7 17 10 17 5 0 -5 5 -2 10 6 5 8 10 10 10 4 0 -7 7 -14 15
-18 13 -4 14 -2 5 14 -9 16 -8 18 5 14 8 -4 15 -11 15 -18 0 -6 5 -4 10 4 5 8
10 10 10 4 0 -6 7 -11 15 -11 8 0 15 4 15 8 0 13 55 4 68 -11 8 -8 11 -10 8
-3 -4 6 -2 14 4 18 5 3 10 1 10 -6 0 -7 7 -4 15 7 13 16 14 17 9 1 -7 -19 15
-21 28 -2 5 6 8 4 8 -4 0 -11 4 -9 15 5 13 16 14 17 9 1 -7 -19 15 -21 28 -2
5 6 8 6 8 -1 0 -6 7 -11 15 -11 8 0 15 4 15 8 0 13 55 4 68 -11 10 -11 12 -11
6 -1 -5 11 -3 13 9 8 10 -4 17 -1 18 6 0 8 2 7 6 -2 5 -11 7 -11 14 0 7 12 9
12 9 0 0 -11 4 -9 15 5 10 13 13 14 10 3 -4 -10 0 -16 10 -16 8 0 15 4 15 9 0
4 5 8 11 8 5 0 7 -6 3 -12 -5 -10 -4 -10 6 -1 10 9 17 10 27 2 8 -7 13 -8 13
-1 0 15 53 9 68 -8 8 -8 11 -10 8 -3 -4 6 -2 14 4 18 5 3 10 1 10 -6 0 -7 7
-4 15 7 13 16 14 17 9 1 -7 -19 15 -21 28 -2 5 6 8 4 8 -4 0 -11 4 -9 15 5 13
16 14 17 9 1 -7 -19 15 -21 28 -2 5 6 8 6 8 -1 0 -6 7 -11 15 -11 8 0 15 4 15
8 0 13 55 4 68 -11 10 -11 12 -11 6 -1 -5 11 -3 13 9 8 10 -4 17 -1 17 6 0 8
4 6 10 -3 9 -13 10 -13 11 0 0 11 2 12 6 2 4 -10 9 -9 19 5 11 14 13 14 9 2
-4 -10 0 -16 10 -16 8 0 15 4 15 9 0 4 5 8 11 8 5 0 7 -6 3 -12 -5 -10 -4 -10
6 -1 10 9 17 10 27 2 8 -7 13 -8 13 -1 0 15 53 9 68 -8 8 -8 11 -10 8 -3 -4 6
-2 14 4 18 5 3 10 1 10 -6 0 -7 7 -4 15 7 13 16 14 17 9 1 -7 -19 15 -21 28
-2 5 6 8 4 8 -4 0 -11 4 -9 15 5 13 16 14 17 9 1 -7 -19 15 -21 28 -2 5 6 8 6
8 -1 0 -6 7 -11 15 -11 8 0 15 3 15 7 0 4 14 7 30 7 17 0 30 -5 30 -10 0 -5 7
-4 15 3 8 7 15 9 15 5 0 -4 7 -1 17 6 15 13 15 12 3 -11 -12 -23 -12 -24 3
-11 10 7 17 10 17 5 0 -5 5 -2 10 6 5 8 10 10 10 4 0 -7 7 -14 15 -18 13 -4
14 -2 5 14 -9 16 -8 18 5 14 8 -4 15 -11 15 -18 0 -6 5 -4 10 4 7 11 10 11 10
2 0 -10 5 -10 20 -2 11 6 20 8 20 4 0 -3 7 0 17 7 15 13 15 12 3 -11 -12 -23
-12 -24 3 -11 10 7 17 10 17 5 0 -5 5 -2 10 6 5 8 10 10 10 4 0 -7 7 -14 15
-18 13 -4 14 -2 5 14 -9 16 -8 18 5 14 8 -4 15 -11 15 -18 0 -6 5 -4 10 4 7
11 10 11 10 2 0 -10 5 -10 20 -2 11 6 20 8 20 4 0 -3 8 0 17 7 16 13 17 12 5
-3 -12 -15 -11 -17 7 -15 12 1 21 5 21 9 0 4 5 8 11 8 5 0 8 -4 5 -9 -3 -5 1
-11 9 -14 9 -4 12 -1 9 7 -3 7 2 13 11 13 8 0 15 -6 15 -13 0 -7 5 -16 12 -20
7 -5 8 -2 3 7 -5 8 -4 11 0 7 12 -11 12 -148 0 -148 -5 0 -3 -5 5 -10 11 -7
11 -10 2 -10 -10 0 -10 -5 -2 -20 9 -16 8 -20 -7 -21 -17 -1 -17 -2 0 -6 9 -2
17 -9 17 -14 0 -6 -3 -8 -7 -6 -5 3 -8 -8 -9 -24 -1 -15 2 -26 6 -24 4 2 7 -2
7 -10 0 -8 -4 -15 -9 -15 -4 0 -8 -5 -8 -11 0 -5 3 -8 8 -6 4 3 7 -19 7 -49 0
-30 -4 -54 -10 -54 -5 0 -3 -5 5 -10 10 -6 11 -10 3 -10 -9 0 -10 -7 -3 -26 6
-14 6 -23 1 -20 -10 7 -9 -20 2 -30 4 -4 -1 -12 -10 -19 -13 -9 -13 -14 -3
-20 9 -6 11 -4 5 6 -5 8 -4 10 0 6 14 -12 15 -37 2 -37 -7 0 -5 -5 3 -10 12
-8 12 -10 1 -10 -11 0 -11 -3 -1 -15 9 -11 9 -15 1 -15 -8 0 -9 -5 -2 -17 7
-12 5 -21 -7 -30 -12 -9 -13 -12 -3 -11 7 2 16 -3 19 -11 2 -8 1 -11 -4 -8 -5
3 -9 -8 -10 -24 -1 -15 2 -26 6 -24 4 2 7 -2 7 -10 0 -8 -4 -15 -9 -15 -4 0
-8 -5 -8 -11 0 -5 4 -8 9 -5 9 6 4 -54 -5 -63 -2 -2 4 -10 14 -18 16 -12 16
-13 -2 -6 -14 5 -17 3 -12 -6 13 -20 14 -91 2 -91 -6 0 -4 -5 4 -10 11 -7 11
-10 2 -10 -7 0 -10 -5 -7 -11 12 -18 12 -89 1 -89 -6 0 -4 -5 4 -10 11 -7 11
-10 2 -10 -10 0 -10 -5 -2 -20 9 -16 8 -20 -7 -21 -17 -1 -17 -2 0 -6 9 -2 17
-9 17 -14 0 -6 -3 -8 -7 -6 -5 3 -8 -8 -9 -24 -1 -15 2 -26 6 -24 4 2 7 -2 7
-10 0 -8 -4 -15 -9 -15 -4 0 -8 -5 -8 -11 0 -5 4 -8 8 -5 5 3 8 -11 8 -31 -1
-38 -33 -86 -51 -75 -17 10 -45 9 -45 -2 0 -7 -3 -7 -8 -1 -10 14 -32 17 -32
4 0 -8 -6 -7 -17 2 -15 12 -16 12 -8 -1 8 -13 6 -13 -8 -1 -10 8 -24 10 -34 6
-29 -13 -43 -14 -49 -4 -3 6 -12 5 -22 -3 -14 -11 -15 -10 -9 7 7 20 7 20 -8
1 -8 -11 -15 -14 -15 -8 0 14 -21 12 -32 -3 -5 -6 -8 -6 -8 1 0 6 -7 11 -15
11 -8 0 -15 -5 -15 -10 0 -5 -7 -4 -15 3 -10 8 -15 9 -15 1 0 -7 -8 -8 -25 -1
-18 7 -25 6 -25 -3 0 -9 -3 -8 -9 1 -11 17 -21 17 -32 0 -5 -7 -9 -8 -9 -2 0
6 -7 11 -15 11 -8 0 -15 -5 -15 -10 0 -5 -8 -3 -17 4 -15 12 -16 12 -8 -1 8
-13 6 -13 -8 -1 -10 8 -24 10 -34 6 -29 -13 -43 -14 -49 -4 -3 6 -12 5 -22 -3
-14 -11 -15 -10 -9 7 7 20 7 20 -8 1 -8 -11 -15 -14 -15 -8 0 14 -21 12 -32
-3 -5 -6 -8 -6 -8 1 0 6 -7 11 -15 11 -8 0 -15 -5 -15 -10 0 -5 -8 -3 -17 4
-15 12 -16 12 -8 -1 8 -13 6 -13 -8 -1 -10 8 -24 10 -34 6 -29 -13 -43 -14
-49 -4 -3 6 -12 5 -22 -3 -14 -11 -15 -10 -9 7 7 20 7 20 -8 1 -8 -11 -15 -14
-15 -8 0 14 -21 12 -32 -3 -5 -6 -8 -6 -8 1 0 6 -7 11 -15 11 -8 0 -15 -4 -15
-8 0 -5 -7 -6 -15 -3 -8 4 -12 11 -9 18 3 6 -2 2 -10 -8 -9 -11 -16 -15 -16
-10 0 6 -7 11 -15 11 -8 0 -15 -5 -15 -11 0 -6 -4 -5 -9 2 -4 8 -12 14 -16 14
-4 0 -12 -6 -16 -14 -5 -7 -9 -8 -9 -2 0 6 -7 11 -15 11 -8 0 -15 -5 -15 -10
0 -5 -8 -3 -17 4 -15 12 -16 12 -8 -1 8 -13 6 -13 -8 -1 -10 8 -24 10 -34 6
-29 -13 -43 -14 -49 -4 -3 6 -12 5 -22 -3 -14 -11 -15 -10 -9 7 7 20 7 20 -8
1 -8 -11 -15 -14 -15 -8 0 14 -21 12 -32 -3 -5 -6 -8 -6 -8 1 0 6 -7 11 -15
11 -8 0 -15 -5 -15 -10 0 -5 -8 -3 -17 4 -15 12 -16 12 -8 -1 8 -13 6 -13 -8
-1 -10 8 -24 10 -34 6 -29 -13 -43 -14 -49 -4 -3 6 -12 5 -22 -3 -14 -11 -15
-10 -9 7 7 20 7 20 -8 1 -8 -11 -15 -14 -15 -8 0 14 -21 12 -32 -3 -5 -6 -8
-6 -8 1 0 6 -7 11 -15 11 -8 0 -15 -5 -15 -10 0 -5 -7 -4 -15 3 -10 8 -15 9
-15 1 0 -7 -8 -8 -25 -1 -18 7 -25 6 -25 -3 0 -9 -3 -8 -9 1 -11 17 -21 17
-32 0 -5 -7 -9 -8 -9 -2 0 6 -7 11 -15 11 -8 0 -15 -5 -15 -10 0 -5 -8 -3 -17
4 -15 12 -16 12 -8 -1 8 -13 6 -13 -8 -1 -10 8 -24 10 -34 6 -29 -13 -43 -14
-49 -4 -3 6 -12 5 -22 -3 -14 -11 -15 -10 -9 7 7 20 7 20 -8 1 -8 -11 -15 -14
-15 -8 0 14 -21 12 -32 -3 -5 -6 -8 -6 -8 1 0 6 -7 11 -15 11 -8 0 -15 -5 -15
-10 0 -5 -8 -3 -17 4 -15 12 -16 12 -8 -1 7 -12 6 -13 -6 -4 -13 9 -30 11 -44
4 -13 -6 -31 -5 -42 2 -6 5 -14 4 -18 -2 -4 -6 -12 -7 -18 -2 -14 10 -27 10
-46 -2 -10 -7 -12 -4 -6 13 5 15 3 19 -8 16 -8 -4 -14 0 -14 9 0 8 4 13 8 11
4 -3 10 2 13 11 3 8 2 12 -3 9 -5 -3 -12 -1 -16 5 -3 5 -1 10 4 10 6 0 11 5
11 11 0 5 -4 8 -8 5 -5 -3 -9 1 -9 8 0 8 5 12 12 10 6 -3 11 6 12 18 2 16 0
19 -6 10 -7 -11 -9 -10 -14 2 -4 9 -2 16 3 16 6 0 10 5 10 11 0 5 -4 7 -10 4
-6 -3 -7 1 -4 9 3 9 11 13 18 9 7 -4 7 -1 -1 7 -10 11 -10 17 0 29 9 11 9 13
0 8 -6 -4 -14 -3 -18 3 -3 5 1 10 9 10 9 0 16 4 16 10 0 5 -8 7 -17 3 -16 -6
-15 -3 2 17 11 13 15 20 8 17 -6 -4 -14 -3 -18 3 -3 5 -1 10 5 10 8 0 8 6 0
20 -7 14 -7 20 0 20 5 0 10 -5 10 -12 0 -6 3 -8 7 -4 5 4 -1 14 -11 22 -17 12
-18 14 -3 14 9 0 17 5 17 11 0 5 -4 8 -9 5 -5 -3 -9 5 -9 19 1 14 4 23 8 20 3
-2 7 2 7 10 0 8 -4 12 -8 10 -12 -8 -18 22 -6 34 8 8 7 11 -4 11 -9 0 -10 3
-3 8 6 4 14 18 18 32 5 17 4 20 -2 12 -7 -11 -10 -11 -15 2 -4 9 -2 16 3 16 6
0 10 5 10 11 0 5 -4 8 -8 5 -5 -3 -9 1 -9 8 0 8 5 12 12 10 6 -3 11 6 12 18 2
16 0 19 -6 10 -7 -11 -9 -10 -14 2 -4 9 -2 16 3 16 6 0 10 5 10 11 0 5 -4 7
-10 4 -6 -3 -7 1 -4 9 3 9 11 13 18 9 7 -4 7 -1 -1 7 -10 11 -10 17 0 29 9 11
9 13 0 8 -6 -4 -14 -3 -18 3 -3 5 1 10 9 10 9 0 16 4 16 10 0 5 -8 7 -18 3
-15 -6 -14 -3 3 17 11 13 15 20 8 17 -6 -4 -14 -3 -18 3 -3 5 -1 10 5 10 8 0
8 6 0 20 -7 14 -7 20 0 20 5 0 10 -5 10 -12 0 -6 3 -8 7 -4 5 4 -1 14 -11 22
-17 12 -18 14 -3 14 9 0 17 5 17 11 0 5 -4 8 -9 5 -5 -3 -8 5 -8 19 0 14 3 23
7 20 3 -2 7 2 7 10 0 8 -4 12 -8 10 -12 -8 -18 22 -6 34 8 8 7 11 -3 11 -10 0
-11 3 -4 8 6 4 14 18 18 32 5 17 4 20 -2 12 -7 -11 -10 -11 -15 2 -4 9 -2 16
3 16 6 0 10 5 10 11 0 5 -4 8 -8 5 -5 -3 -9 1 -9 8 0 8 5 12 12 10 6 -3 11 6
12 18 2 16 0 19 -6 10 -7 -11 -9 -10 -14 2 -4 9 -2 16 3 16 6 0 10 5 10 11 0
5 -4 7 -10 4 -6 -3 -7 1 -4 9 3 9 11 13 18 9 7 -4 7 -1 -1 7 -10 11 -10 17 0
29 9 11 9 13 0 8 -6 -4 -14 -3 -18 3 -3 5 1 10 9 10 9 0 16 4 16 10 0 5 -8 7
-17 3 -16 -6 -15 -3 2 17 11 13 15 20 8 17 -6 -4 -14 -3 -18 3 -3 5 -1 10 5
10 8 0 8 6 0 20 -7 14 -7 20 0 20 5 0 10 -5 10 -12 0 -6 3 -8 6 -5 4 4 1 14
-7 23 -15 19 -21 47 -8 38 5 -3 9 10 10 28 0 18 3 27 6 21 3 -9 10 -10 24 -3
14 8 19 7 19 -2 0 -8 5 -6 11 5 12 21 20 22 12 2z"/>
<path d="M1546 1748 c4 -7 3 -8 -5 -4 -6 4 -23 -2 -37 -13 -15 -12 -22 -21
-17 -21 5 0 15 6 23 13 8 6 7 3 -3 -9 -9 -11 -14 -24 -10 -27 3 -4 1 -7 -5 -7
-6 0 -9 -7 -5 -15 3 -9 -3 -25 -13 -36 -10 -12 -19 -34 -20 -50 -1 -16 -6 -35
-13 -43 -9 -10 -9 -16 -1 -21 8 -5 8 -11 1 -19 -6 -7 -7 -16 -3 -20 4 -4 0 -6
-8 -4 -9 2 -14 -3 -12 -14 1 -9 -5 -19 -15 -21 -16 -4 -16 -5 -1 -6 11 -1 15
-6 12 -16 -4 -8 -10 -13 -14 -10 -5 3 -9 -4 -9 -15 -1 -11 -1 -29 -2 -41 0
-11 -6 -22 -14 -25 -8 -3 -11 -12 -8 -20 3 -8 -1 -14 -8 -14 -11 0 -11 -3 1
-10 11 -7 12 -10 2 -10 -8 0 -12 -6 -9 -12 2 -7 -3 -19 -12 -26 -12 -10 -13
-15 -4 -18 9 -4 7 -12 -7 -26 -15 -16 -17 -25 -9 -35 8 -9 7 -14 -4 -19 -8 -3
-13 -13 -10 -24 3 -10 -1 -21 -8 -25 -8 -6 -10 -4 -4 5 5 9 4 11 -4 6 -9 -6
-9 -11 0 -22 8 -10 8 -14 1 -14 -7 0 -9 -7 -5 -17 4 -10 2 -14 -5 -9 -7 4 -10
-1 -7 -13 2 -11 -3 -22 -11 -25 -10 -4 -13 -15 -9 -36 4 -20 1 -32 -8 -36 -7
-2 -12 -17 -11 -34 2 -23 -1 -27 -15 -22 -14 5 -15 4 -1 -13 9 -12 10 -16 2
-11 -9 6 -11 1 -8 -18 3 -15 1 -24 -4 -21 -5 3 -11 1 -15 -5 -3 -5 0 -10 7
-10 9 0 9 -3 -2 -10 -11 -7 -11 -10 -2 -10 7 0 11 -4 7 -9 -3 -5 -1 -12 5 -16
6 -4 7 -12 3 -18 -3 -7 2 -5 13 4 10 9 27 15 37 14 9 -2 15 1 11 6 -3 5 -11 7
-17 3 -7 -3 -4 1 7 10 11 9 16 22 12 31 -4 11 -2 14 6 9 8 -5 9 -2 5 10 -5 13
-3 17 7 13 10 -4 13 -1 9 8 -3 8 -10 12 -17 8 -6 -3 -7 -2 -3 3 5 5 13 10 18
10 22 3 23 5 9 14 -9 6 -11 10 -3 10 7 0 10 7 6 17 -4 10 -2 14 5 9 7 -4 10 1
7 14 -2 11 0 20 6 20 5 0 8 3 8 8 -3 19 2 33 10 28 5 -4 7 3 4 14 -3 11 0 26
6 34 7 8 11 18 10 22 -4 23 2 45 10 39 5 -3 13 0 17 6 4 8 3 9 -4 5 -7 -4 -12
-1 -12 9 0 9 4 14 9 11 4 -3 7 6 5 20 -2 20 1 24 13 20 13 -5 14 -4 3 9 -9 11
-9 15 -1 15 7 0 9 5 6 10 -3 6 0 10 7 10 10 0 9 3 -2 10 -12 8 -12 10 3 16 14
5 15 9 6 20 -9 11 -8 14 7 14 16 0 17 2 4 10 -12 7 -12 10 -1 10 7 0 11 6 8
14 -3 8 1 17 8 20 9 3 12 12 8 22 -5 13 -3 15 8 9 11 -6 12 -5 2 5 -10 11 -9
16 5 27 9 8 11 11 3 7 -10 -5 -12 -3 -5 7 4 8 9 19 11 24 1 6 5 21 8 35 4 14
7 30 7 37 1 7 4 12 7 11 19 -2 24 4 11 12 -11 7 -11 10 -2 10 7 0 10 5 6 12
-4 6 1 17 11 25 14 9 15 13 4 13 -12 0 -12 2 0 9 8 5 12 19 9 34 -4 18 -1 24
8 20 10 -4 13 3 10 26 -3 25 -1 29 10 20 10 -8 12 -5 8 16 -3 19 -1 24 7 19 7
-4 4 5 -7 19 -18 25 -53 39 -38 15z"/>
<path d="M1939 1680 c-8 -6 -8 -9 2 -13 10 -4 10 -6 2 -6 -7 -1 -13 -6 -13
-12 0 -5 6 -7 13 -3 10 6 10 4 0 -7 -7 -7 -13 -17 -13 -22 0 -4 6 -5 13 -1 6
4 1 -4 -13 -19 -16 -16 -29 -22 -34 -16 -14 13 -28 11 -20 -3 6 -10 4 -10 -8
0 -13 10 -19 10 -32 -3 -19 -20 -20 -27 -3 -44 10 -11 10 -13 0 -7 -12 7 -18
-7 -13 -29 1 -5 3 -17 3 -25 0 -8 7 -21 15 -29 12 -12 15 -12 24 0 7 10 8 9 4
-7 -5 -15 -2 -21 9 -21 9 0 14 6 11 12 -2 7 5 11 17 10 25 -2 39 -34 23 -54
-8 -11 -8 -13 0 -8 7 4 12 -2 12 -18 0 -14 -4 -22 -9 -19 -5 3 -6 -2 -3 -10 3
-9 11 -13 18 -9 6 4 5 -1 -3 -10 -9 -12 -10 -17 -2 -17 7 0 9 -5 6 -10 -5 -8
-12 -7 -22 2 -15 12 -15 11 -3 -9 8 -12 19 -19 25 -15 5 3 4 -2 -4 -11 -7 -9
-10 -17 -7 -17 4 0 2 -9 -4 -20 -9 -16 -8 -18 5 -14 13 5 14 2 5 -20 -5 -14
-7 -26 -4 -26 2 0 0 -9 -6 -20 -9 -16 -8 -18 5 -14 13 5 14 2 5 -20 -5 -14 -7
-26 -4 -26 2 0 0 -9 -6 -20 -9 -16 -8 -18 5 -14 13 5 14 2 5 -20 -5 -14 -7
-26 -4 -26 2 0 0 -9 -6 -20 -9 -16 -8 -19 6 -13 12 4 15 3 10 -6 -5 -7 -9 -41
-11 -76 -3 -55 -1 -63 12 -58 11 4 14 2 9 -5 -5 -8 -2 -10 8 -6 10 4 16 1 16
-7 0 -8 6 -5 15 7 8 10 15 14 15 8 0 -14 45 -11 45 3 0 6 3 15 7 18 4 4 3 17
-3 28 -8 14 -8 18 0 13 6 -4 11 -2 11 3 0 6 -4 11 -8 11 -11 0 -9 31 3 49 6
10 4 12 -6 6 -12 -7 -12 -6 -1 7 10 13 10 17 0 21 -9 4 -9 6 2 6 12 1 13 3 1
10 -10 7 -11 13 -2 30 9 16 9 21 0 21 -8 0 -8 4 1 15 10 12 10 15 -1 15 -11 0
-11 2 1 10 8 5 10 10 3 10 -12 0 -12 18 1 39 5 8 4 16 -4 21 -9 6 -9 12 -1 29
7 11 8 21 3 21 -11 0 -9 30 2 49 5 8 4 16 -4 21 -9 6 -9 12 -1 29 8 14 8 21 1
21 -7 0 -7 7 1 21 8 16 8 20 -1 14 -9 -6 -9 -3 -1 13 8 15 8 21 -1 24 -8 3 -8
10 1 26 8 15 8 22 1 22 -7 0 -7 7 1 21 8 16 8 20 -1 14 -9 -6 -9 -3 -1 13 8
15 8 21 -1 24 -8 3 -8 10 1 26 7 14 8 22 2 22 -7 0 -7 9 -1 25 6 16 6 25 -1
25 -6 0 -6 7 1 20 8 15 8 20 -1 20 -8 0 -9 4 0 13 12 15 15 14 -61 20 -26 2
-52 1 -59 -3z"/>
<path d="M593 1645 c1 -5 -6 -9 -15 -9 -10 1 -18 -2 -18 -7 0 -5 -9 -9 -21 -9
-11 0 -18 -4 -14 -9 3 -5 1 -12 -5 -16 -5 -3 -10 -1 -10 5 0 6 -5 8 -10 5 -6
-4 -8 -11 -5 -16 4 -5 -1 -9 -9 -9 -9 0 -16 -5 -16 -11 0 -5 -5 -7 -12 -3 -8
5 -9 2 -5 -9 4 -11 1 -17 -8 -17 -8 0 -15 -6 -15 -13 0 -8 -9 -22 -20 -32 -11
-10 -20 -27 -20 -37 0 -11 -4 -16 -10 -13 -6 4 -10 -5 -10 -19 0 -14 -9 -35
-20 -46 -11 -11 -15 -22 -10 -25 6 -4 10 -1 10 4 0 6 6 11 13 11 6 -1 1 -10
-12 -20 -13 -11 -19 -20 -14 -20 5 0 10 -7 10 -15 0 -8 -4 -12 -8 -10 -3 3 -9
-4 -12 -16 -4 -16 -3 -18 9 -8 9 7 14 8 14 1 0 -6 -4 -14 -10 -17 -12 -8 -9
-55 4 -55 5 0 1 -7 -10 -16 -10 -8 -14 -13 -8 -10 7 3 14 -4 17 -15 4 -16 2
-19 -10 -15 -14 6 -14 4 -2 -10 8 -10 13 -25 11 -36 -2 -12 3 -18 15 -19 16 0
16 -1 -2 -9 -17 -7 -17 -9 -2 -9 17 -1 20 -8 20 -43 0 -10 4 -18 9 -18 5 0 14
-13 19 -30 6 -16 15 -30 21 -30 5 0 6 -4 3 -10 -3 -5 0 -10 8 -10 8 0 17 -9
20 -20 3 -11 11 -20 19 -20 7 0 22 -12 32 -27 9 -16 15 -20 12 -10 -3 11 -2
16 4 12 6 -3 10 -12 10 -19 0 -16 32 -17 43 -2 6 7 7 6 4 -4 -2 -8 3 -22 11
-30 14 -13 15 -12 9 5 -7 19 -6 19 7 3 15 -20 31 -25 20 -7 -5 8 -2 9 11 2 10
-6 26 -8 36 -6 11 3 26 0 34 -7 13 -11 14 -10 8 6 -6 17 -5 18 12 4 10 -8 16
-10 12 -3 -4 6 -3 14 3 18 5 3 10 0 10 -7 0 -9 3 -9 8 -2 8 12 43 28 55 26 4
-1 7 6 7 16 0 14 2 15 10 2 8 -13 10 -13 10 2 0 17 37 45 53 40 5 -1 6 2 2 7
-3 6 3 19 15 31 11 11 20 25 20 31 0 5 6 7 13 3 6 -4 9 -4 5 1 -4 4 -2 15 5
23 10 13 9 15 -3 8 -11 -6 -11 -4 1 6 9 7 15 21 13 30 -1 12 3 15 14 11 10 -4
14 -3 10 2 -4 4 -3 14 4 22 9 11 7 12 -7 7 -15 -6 -16 -4 -6 14 7 12 17 22 23
22 7 0 4 6 -7 13 -20 15 -5 34 18 21 9 -6 9 -5 0 8 -7 8 -10 18 -6 21 3 4 1 7
-6 7 -7 0 -9 5 -6 10 4 6 10 8 14 6 10 -7 7 32 -4 41 -4 5 -5 1 0 -7 5 -8 4
-12 0 -7 -12 10 -15 38 -4 31 5 -3 8 6 7 20 -1 15 -7 26 -12 26 -6 0 -5 5 1
11 14 14 5 42 -9 33 -6 -4 -8 2 -3 15 3 11 2 21 -3 21 -6 0 -13 7 -16 16 -3 8
-2 12 3 9 5 -3 13 0 17 6 4 7 3 9 -4 5 -6 -3 -13 3 -17 14 -4 11 -11 17 -17
14 -7 -5 -9 -1 -5 9 3 9 1 18 -6 21 -9 3 -8 8 3 16 13 10 12 11 -3 6 -13 -4
-20 0 -24 14 -3 11 -9 17 -14 14 -5 -3 -9 1 -9 9 0 8 -7 18 -16 21 -10 4 -14
12 -10 22 5 13 4 14 -7 6 -10 -9 -17 -6 -30 9 -10 11 -22 17 -27 14 -6 -3 -10
-1 -10 5 0 7 -7 9 -16 6 -8 -3 -13 -2 -10 3 3 5 -1 12 -10 15 -10 4 -13 2 -8
-7 6 -8 3 -8 -8 1 -20 16 -147 22 -145 7z m97 -146 c0 -4 -6 -9 -12 -12 -7 -2
8 -3 34 -2 26 1 45 -2 42 -6 -2 -4 8 -16 23 -26 41 -26 50 -37 45 -52 -3 -8 0
-11 7 -7 13 9 31 -32 23 -53 -4 -10 -1 -12 8 -6 10 6 12 2 8 -18 -3 -15 -1
-24 3 -21 5 3 10 -1 10 -8 1 -7 2 -20 3 -28 0 -8 -3 -18 -9 -22 -6 -5 -5 -8 4
-8 11 0 11 -3 0 -17 -12 -15 -12 -16 1 -8 12 6 13 5 3 -6 -15 -16 -17 -33 -3
-24 6 3 7 -1 4 -9 -3 -9 -11 -13 -18 -9 -6 4 -4 -2 4 -12 9 -11 10 -16 3 -11
-7 4 -14 2 -14 -3 -1 -6 -3 -15 -4 -21 -1 -5 -3 -15 -4 -21 0 -5 -5 -8 -10 -4
-6 3 -8 -3 -6 -14 2 -11 -4 -26 -13 -33 -16 -12 -16 -11 -2 7 14 19 14 19 -3
6 -10 -8 -15 -21 -12 -30 3 -8 3 -12 -1 -8 -4 4 -13 -1 -21 -11 -8 -9 -11 -11
-8 -3 5 9 -1 8 -19 -4 -14 -9 -23 -22 -19 -28 4 -6 1 -7 -6 -2 -16 9 -71 13
-65 4 2 -4 -3 -10 -12 -13 -8 -3 -12 -2 -9 4 5 9 -24 15 -48 11 -5 -1 -6 3 -2
9 3 5 0 10 -8 10 -17 0 -68 46 -60 54 4 3 -2 6 -11 6 -13 0 -17 6 -13 20 3 11
2 18 -1 16 -4 -2 -13 2 -20 10 -8 9 -9 14 -2 14 7 0 4 7 -4 16 -17 16 -21 29
-8 20 11 -7 8 31 -3 41 -4 5 -5 2 -1 -4 4 -7 2 -13 -3 -13 -14 0 -14 13 1 28
9 9 9 12 -1 12 -11 0 -11 3 0 17 8 10 9 14 2 10 -8 -5 -11 0 -10 13 1 13 6 19
15 15 8 -3 10 0 5 8 -11 18 -12 37 -2 37 4 0 5 7 2 17 -5 12 -3 14 8 8 12 -8
12 -6 0 8 -12 15 -11 17 2 17 9 0 14 6 12 13 -3 6 5 23 16 37 11 14 17 19 13
11 -5 -10 -3 -12 5 -7 7 5 10 14 7 22 -5 12 10 19 36 16 3 -1 12 6 20 16 12
15 11 16 -4 3 -12 -9 -18 -10 -18 -2 0 11 6 13 52 15 15 1 30 5 35 10 5 5 2 6
-6 1 -8 -5 -12 -4 -8 1 6 11 47 13 47 3z"/>
<path d="M1420 1499 c0 -5 5 -7 10 -4 6 3 10 8 10 11 0 2 -4 4 -10 4 -5 0 -10
-5 -10 -11z"/>
<path d="M1176 757 c3 -10 9 -15 12 -12 3 3 0 11 -7 18 -10 9 -11 8 -5 -6z"/>
<path d="M236 552 c-3 -5 1 -9 9 -9 8 0 12 4 9 9 -3 4 -7 8 -9 8 -2 0 -6 -4
-9 -8z"/>
<path d="M476 552 c-3 -5 1 -9 9 -9 8 0 12 4 9 9 -3 4 -7 8 -9 8 -2 0 -6 -4
-9 -8z"/>
<path d="M876 552 c-3 -5 1 -9 9 -9 8 0 12 4 9 9 -3 4 -7 8 -9 8 -2 0 -6 -4
-9 -8z"/>
<path d="M1116 552 c-3 -5 1 -9 9 -9 8 0 12 4 9 9 -3 4 -7 8 -9 8 -2 0 -6 -4
-9 -8z"/>
<path d="M1516 552 c-3 -5 1 -9 9 -9 8 0 12 4 9 9 -3 4 -7 8 -9 8 -2 0 -6 -4
-9 -8z"/>
<path d="M1756 552 c-3 -5 1 -9 9 -9 8 0 12 4 9 9 -3 4 -7 8 -9 8 -2 0 -6 -4
-9 -8z"/>
<path d="M2156 552 c-3 -5 1 -9 9 -9 8 0 12 4 9 9 -3 4 -7 8 -9 8 -2 0 -6 -4
-9 -8z"/>
</g>
</svg>
